PathFileType   4   (X/Y/Z)
DataRate	CameraRate	NumFrames	NumMarkers	Units	OrigDataRate	OrigDataStartFrame	OrigNumFrames
120.0	120.0	7	37	mm	120.0	69	136
Frame#	Time	midhip	hip_r	hip_l	knee_r	knee_l	ankle_r	ankle_l	midasis	asis_r	asis_l	psis_r	psis_l	epicondLat_r	epicondLat_l	epicondMed_r	epicondMed_l	malleolusLat_r	malleolusLat_l	malleolusMedv_r	malleolusMedv_l	neck	subclavicle_r	subclavicle_l	sternalnotch	xyphoidprocess	thighwand_r	thighwand_l	upperleg1_r	upperleg1_l	upperleg2_r	upperleg2_l	shankwand_r	shankwand_l	lowerleg1_r	lowerleg1_l	toe_r	toe_l
 	 	X1	Y1	Z1	X2	Y2	Z2	X3	Y3	Z3	X4	Y4	Z4	X5	Y5	Z5	X6	Y6	Z6	X7	Y7	Z7	X8	Y8	Z8	X9	Y9	Z9	X10	Y10	Z10	X11	Y11	Z11	X12	Y12	Z12	X13	Y13	Z13	X14	Y14	Z14	X15	Y15	Z15	X16	Y16	Z16	X17	Y17	Z17	X18	Y18	Z18	X19	Y19	Z19	X20	Y20	Z20	X21	Y21	Z21	X22	Y22	Z22	X23	Y23	Z23	X24	Y24	Z24	X25	Y25	Z25	X26	Y26	Z26	X27	Y27	Z27	X28	Y28	Z28	X29	Y29	Z29	X30	Y30	Z30	X31	Y31	Z31	X32	Y32	Z32	X33	Y33	Z33	X34	Y34	Z34	X35	Y35	Z35	X36	Y36	Z36	X37	Y37	Z37

	69	0.80000	1835.542	764.510	-246.628	1821.858	772.239	-166.636	1810.902	763.801	-321.650	1959.295	418.691	-198.040	1754.171	403.649	-335.881	1977.586	60.132	-208.619	1505.297	131.971	-306.354	1943.249	840.618	-257.062	1951.934	847.306	-134.186	1934.564	833.930	-379.938	1701.729	912.560	-208.739	1695.691	909.354	-263.338	1971.536	417.194	-127.612	1743.011	408.192	-406.359	1938.879	420.443	-269.146	1765.324	396.961	-243.585	1974.540	58.845	-170.262	1490.882	141.310	-341.924	1979.451	70.318	-245.344	1513.918	147.946	-266.136	1739.676	1335.755	-236.143	1867.882	1264.716	-209.437	1861.901	1270.570	-291.218	1847.233	1263.555	-261.778	1897.241	1188.944	-269.351	2063.127	610.561	-129.709	1961.340	559.614	-362.842	2019.000	620.345	-143.104	1917.581	581.889	-361.515	2019.508	543.739	-154.924	1887.878	513.358	-356.492	2061.341	208.092	-189.797	1554.328	219.060	-416.837	2014.065	211.717	-195.739	1565.328	229.037	-371.360	2090.039	45.911	-204.404	1565.293	54.155	-313.933
	70	0.80833	1843.312	765.540	-244.908	1829.543	773.415	-164.955	1818.727	764.463	-319.950	1962.924	418.884	-197.395	1767.299	402.081	-337.925	1977.692	60.134	-208.663	1512.551	137.176	-305.912	1950.770	841.922	-255.505	1959.335	849.011	-132.767	1942.205	834.833	-378.242	1709.065	913.160	-207.669	1703.173	909.772	-262.103	1975.450	417.158	-127.022	1756.470	407.114	-408.421	1941.407	422.094	-269.091	1779.541	394.194	-245.708	1974.746	58.808	-170.299	1498.282	146.595	-341.521	1979.220	70.614	-245.371	1521.878	152.715	-265.852	1747.225	1336.864	-235.159	1875.520	1266.132	-208.458	1869.861	1271.913	-290.714	1854.735	1264.633	-260.943	1905.299	1190.374	-268.377	2069.205	609.747	-129.173	1972.595	561.567	-362.289	2025.302	620.582	-142.668	1928.444	583.107	-360.969	2024.303	543.301	-154.682	1900.380	514.482	-356.804	2063.081	207.197	-189.803	1563.184	222.022	-417.122	2015.714	211.418	-195.349	1574.572	231.641	-371.754	2090.108	45.726	-204.455	1568.856	55.947	-313.304
	71	0.81667	1850.909	766.512	-243.232	1837.077	774.480	-163.312	1826.362	765.146	-318.291	1966.133	418.986	-196.677	1780.540	400.585	-340.049	1977.845	60.143	-208.696	1520.317	142.547	-305.403	1958.130	843.166	-253.959	1966.607	850.551	-131.334	1949.652	835.780	-376.584	1716.288	913.710	-206.548	1710.534	910.158	-260.807	1978.950	417.040	-126.362	1770.026	406.114	-410.555	1944.693	422.240	-268.134	1795.801	389.086	-247.748	1974.921	58.763	-170.332	1506.175	152.022	-341.047	1978.778	71.031	-245.352	1529.987	158.582	-265.460	1754.514	1337.651	-234.054	1883.030	1267.690	-207.462	1877.450	1272.984	-290.116	1862.151	1265.713	-260.170	1913.223	1191.724	-267.064	2074.969	608.702	-128.665	1983.932	563.661	-361.814	2030.768	620.185	-142.106	1938.429	583.946	-360.011	2029.069	542.657	-154.129	1912.835	515.333	-357.000	2064.641	206.326	-189.592	1572.384	225.087	-417.351	2016.948	211.080	-194.618	1584.045	235.077	-372.385	2090.169	45.553	-204.510	1572.911	58.100	-312.733
	72	0.82500	1858.338	767.393	-241.602	1844.456	775.408	-161.717	1833.804	765.832	-316.686	1969.018	419.030	-195.892	1793.903	399.193	-342.194	1978.035	60.159	-208.715	1528.611	148.019	-304.842	1965.333	844.316	-252.430	1973.756	851.889	-129.887	1956.909	836.744	-374.973	1723.387	914.210	-205.396	1717.753	910.505	-259.494	1982.110	416.868	-125.634	1783.669	405.212	-412.702	1947.974	421.618	-266.787	1810.398	385.375	-250.473	1975.074	58.714	-170.356	1514.580	157.533	-340.519	1979.483	70.843	-245.357	1538.755	164.077	-265.016	1761.710	1338.206	-233.066	1890.443	1268.504	-207.028	1884.605	1274.276	-289.436	1869.465	1266.721	-259.422	1920.686	1192.991	-267.094	2080.444	607.473	-128.135	1995.309	565.930	-361.432	2035.975	618.757	-141.571	1948.989	584.335	-359.458	2033.720	542.078	-153.324	1925.204	516.137	-357.537	2066.038	205.468	-189.208	1581.962	228.234	-417.522	2018.287	210.602	-194.456	1594.034	238.351	-372.708	2090.230	45.396	-204.567	1577.566	60.589	-312.251
	73	0.83333	1865.593	768.160	-240.034	1851.678	776.186	-160.184	1841.054	766.505	-315.148	1971.666	419.047	-195.055	1807.413	397.940	-344.307	1978.248	60.179	-208.716	1537.453	153.509	-304.250	1972.388	845.343	-250.928	1980.786	852.996	-128.433	1963.990	837.691	-373.424	1730.359	914.669	-204.235	1724.816	910.816	-258.207	1984.999	416.672	-124.849	1797.409	404.431	-414.805	1949.695	421.373	-264.834	1823.166	383.760	-254.182	1975.212	58.663	-170.366	1523.518	163.048	-339.958	1980.335	70.822	-245.357	1548.464	168.846	-264.619	1769.166	1338.917	-232.139	1897.878	1269.307	-206.399	1891.301	1275.295	-288.913	1876.636	1267.578	-258.666	1927.611	1193.961	-267.003	2085.660	606.120	-127.543	2006.678	568.407	-361.146	2041.219	617.497	-140.816	1960.447	586.008	-359.523	2037.835	541.120	-152.271	1937.306	516.780	-358.572	2067.290	204.616	-188.712	1591.956	231.434	-417.640	2019.999	210.349	-194.207	1604.692	241.201	-372.858	2090.297	45.257	-204.619	1582.941	63.373	-311.884
	74	0.84167	1872.681	768.802	-238.549	1858.736	776.814	-158.729	1848.118	767.152	-313.695	1974.151	419.063	-194.187	1821.097	396.863	-346.341	1978.460	60.202	-208.697	1546.864	158.918	-303.645	1979.306	846.225	-249.466	1987.699	853.862	-126.982	1970.914	838.588	-371.951	1737.208	915.103	-203.087	1731.717	911.102	-256.982	1987.674	416.472	-124.025	1811.264	403.794	-416.822	1952.266	420.743	-262.989	1836.935	382.222	-256.880	1975.333	58.614	-170.357	1533.011	168.471	-339.381	1980.442	71.097	-245.285	1558.607	174.251	-264.237	1776.593	1339.599	-231.508	1904.929	1270.049	-205.646	1898.191	1276.013	-287.961	1883.686	1268.296	-257.944	1934.460	1194.654	-266.208	2090.646	604.707	-126.861	2017.991	571.111	-360.947	2046.041	616.605	-139.974	1971.472	587.881	-360.170	2041.951	539.922	-151.235	1949.632	517.266	-359.504	2068.412	203.769	-188.164	1602.401	234.644	-417.718	2021.432	209.920	-193.411	1616.057	244.779	-373.188	2090.370	45.138	-204.658	1589.158	66.402	-311.655
	75	0.85000	1879.597	769.323	-237.176	1865.626	777.303	-157.372	1855.005	767.759	-312.345	1976.525	419.091	-193.316	1834.964	395.994	-348.265	1978.647	60.229	-208.659	1556.862	164.141	-303.042	1986.096	846.950	-248.061	1994.492	854.495	-125.549	1977.700	839.405	-370.574	1743.942	915.528	-201.970	1738.464	911.374	-255.843	1990.176	416.281	-123.188	1825.245	403.325	-418.721	1954.648	420.082	-261.218	1853.059	379.239	-259.565	1975.431	58.571	-170.330	1543.077	173.701	-338.803	1980.520	71.024	-245.167	1568.802	179.903	-263.714	1783.655	1340.258	-231.028	1911.802	1270.399	-204.843	1905.205	1276.328	-286.888	1890.666	1268.906	-257.300	1941.240	1194.901	-265.199	2095.422	603.289	-126.076	2029.202	574.049	-360.818	2050.608	615.230	-139.083	1982.068	589.307	-360.723	2045.866	538.928	-150.122	1962.655	518.245	-360.443	2069.422	202.929	-187.621	1613.318	237.817	-417.771	2022.285	209.097	-192.716	1627.967	248.867	-373.096	2090.443	45.038	-204.678	1596.336	69.614	-311.579
